<svg xmlns="http://www.w3.org/2000/svg" width="22.854" height="31" viewBox="0 0 22.854 31">
  <path id="milkshake" d="M22.188,13.078h-.113a10.671,10.671,0,0,0-1.943-5.239,10.119,10.119,0,0,0-5.054-3.765,1.145,1.145,0,0,0-1.335.5,2.151,2.151,0,0,1-.657.673l.722-2.821h6.916A1.189,1.189,0,0,0,21.89,1.211,1.189,1.189,0,0,0,20.724,0H12.911a1.174,1.174,0,0,0-1.127.9L10.7,5.121a2.166,2.166,0,0,1-.489-.551,1.145,1.145,0,0,0-1.335-.5A10.119,10.119,0,0,0,3.824,7.84a10.671,10.671,0,0,0-1.943,5.239H1.666a1.212,1.212,0,0,0,0,2.422H2.917L4.391,29.917A1.183,1.183,0,0,0,5.55,31h12.8a1.183,1.183,0,0,0,1.16-1.086l.476-4.783a1.2,1.2,0,0,0-1.04-1.329,1.178,1.178,0,0,0-1.28,1.08l-.368,3.7H6.6l-.248-2.422h7.791a1.212,1.212,0,0,0,0-2.422H6.1L5.262,15.5H18.6l-.377,3.811a1.2,1.2,0,0,0,1.041,1.328,1.153,1.153,0,0,0,.12.006,1.184,1.184,0,0,0,1.159-1.087l.4-4.058h1.248a1.212,1.212,0,0,0,0-2.422ZM8.864,6.664a4.316,4.316,0,0,0,6.229,0,8.049,8.049,0,0,1,4.635,6.414H4.229A8.049,8.049,0,0,1,8.864,6.664Zm0,0" transform="translate(-0.5)" fill="#f81242"/>
</svg>
