<svg xmlns="http://www.w3.org/2000/svg" width="31" height="31" viewBox="0 0 31 31"><path d="M15.254,21.967l.1.1a.758.758,0,1,1-1.072,1.071l-.1-.1a.758.758,0,0,1,1.072-1.071Zm-4.608-9.425v-4.1A2.809,2.809,0,0,1,13.452,5.64h4.1a2.809,2.809,0,0,1,2.806,2.806v4.1a2.809,2.809,0,0,1-2.806,2.806h-4.1A2.809,2.809,0,0,1,10.646,12.542Zm1.515,0a1.292,1.292,0,0,0,1.291,1.291h4.1a1.292,1.292,0,0,0,1.291-1.291v-4.1a1.292,1.292,0,0,0-1.291-1.291h-4.1a1.292,1.292,0,0,0-1.291,1.291Zm4.409,9.229A.758.758,0,0,0,17.642,20.7l-.1-.1a.758.758,0,0,0-1.072,1.071Zm8.258-10.626a.757.757,0,0,0,0,1.071l.1.1A.758.758,0,0,0,26,11.247l-.1-.1A.757.757,0,0,0,24.829,11.145Zm2.388-.2a.758.758,0,0,0,1.071-1.071l-.1-.1a.758.758,0,1,0-1.071,1.071Zm-5.925-.455a4.854,4.854,0,1,1,4.854,4.854,4.859,4.859,0,0,1-4.854-4.854Zm1.515,0a3.339,3.339,0,1,0,3.339-3.339A3.343,3.343,0,0,0,22.807,10.494ZM25.134,10a.755.755,0,0,0,.535-.222l.1-.1A.758.758,0,1,0,24.7,8.609l-.1.1A.758.758,0,0,0,25.134,10Zm-11.8.49A2.164,2.164,0,1,1,15.5,12.658,2.166,2.166,0,0,1,13.336,10.494Zm1.515,0a.649.649,0,1,0,.649-.649A.65.65,0,0,0,14.851,10.494ZM6.267,15.347h.04a.758.758,0,0,0,.756-.718L7.783.8A.758.758,0,1,0,6.27.718L5.55,14.551A.758.758,0,0,0,6.267,15.347ZM26.557,29.484H22.871a.758.758,0,1,0,0,1.515h3.686a.758.758,0,0,0,0-1.515Zm3.686-2.152H.758a.758.758,0,1,0,0,1.515H30.242a.758.758,0,1,0,0-1.515ZM31,19.268v4.1a2.809,2.809,0,0,1-2.806,2.806H24.1a2.809,2.809,0,0,1-2.806-2.806v-4.1A2.809,2.809,0,0,1,24.1,16.462h4.1A2.809,2.809,0,0,1,31,19.268Zm-1.515,0a1.292,1.292,0,0,0-1.291-1.291H24.1a1.292,1.292,0,0,0-1.291,1.291v4.1A1.292,1.292,0,0,0,24.1,24.655h4.1a1.292,1.292,0,0,0,1.291-1.291Zm-15,1.558a.755.755,0,0,0,.536-.222l.1-.1a.758.758,0,0,0-1.071-1.071l-.1.1a.758.758,0,0,0,.536,1.293Zm13.822.49a2.164,2.164,0,1,1-2.164-2.164A2.166,2.166,0,0,1,28.31,21.316Zm-1.515,0a.649.649,0,1,0-.649.649A.65.65,0,0,0,26.795,21.316ZM8.129,29.484H4.443a.758.758,0,1,0,0,1.515H8.129a.758.758,0,1,0,0-1.515ZM2.644,14.63a.757.757,0,0,0,.756.718h.04a.757.757,0,0,0,.717-.8L3.438.718A.758.758,0,1,0,1.924.8l.72,13.833Zm8,6.686A4.854,4.854,0,1,1,15.5,26.17a4.859,4.859,0,0,1-4.854-4.854Zm1.515,0A3.339,3.339,0,1,0,15.5,17.977,3.343,3.343,0,0,0,12.161,21.316ZM0,23.364v-4.1a2.809,2.809,0,0,1,2.806-2.806H6.9a2.809,2.809,0,0,1,2.806,2.806v4.1A2.809,2.809,0,0,1,6.9,26.17h-4.1A2.809,2.809,0,0,1,0,23.364Zm1.515,0a1.292,1.292,0,0,0,1.291,1.291H6.9a1.292,1.292,0,0,0,1.291-1.291v-4.1A1.292,1.292,0,0,0,6.9,17.977h-4.1a1.292,1.292,0,0,0-1.291,1.291v4.1ZM2.69,21.316A2.164,2.164,0,1,1,4.854,23.48,2.166,2.166,0,0,1,2.69,21.316Zm1.515,0a.649.649,0,1,0,.649-.649.65.65,0,0,0-.649.649Z" transform="translate(0 0.001)" fill="#f81242"/></svg>