<svg xmlns="http://www.w3.org/2000/svg" width="29" height="29" viewBox="0 0 29 29">
  <path id="spaghetti" d="M28.959,22.733c0-.012.006-.023.009-.035a1.328,1.328,0,0,0,.022-.133s0-.009,0-.014A1.322,1.322,0,0,0,29,22.412s0-.009,0-.014v0A14.516,14.516,0,0,0,21.091,9.5V1.322a1.318,1.318,0,1,0-2.636,0V8.461a14.41,14.41,0,0,0-2.636-.488V1.322a1.318,1.318,0,1,0-2.636,0V7.973a14.41,14.41,0,0,0-2.636.488V1.322a1.318,1.318,0,1,0-2.636,0V9.5A14.516,14.516,0,0,0,0,22.395v0s0,.009,0,.014a1.344,1.344,0,0,0,.007.139c0,.006,0,.012,0,.018q.008.065.022.128c0,.013.007.026.01.038q.014.054.031.106c0,.007,0,.014.006.02L2,28.136A1.318,1.318,0,0,0,3.235,29H25.764A1.318,1.318,0,0,0,27,28.136l1.917-5.273c0-.006,0-.012.006-.018C28.939,22.808,28.95,22.771,28.959,22.733Zm-7.868-3.4a1.318,1.318,0,0,0-1.318,1.318v.439H15.985a5.274,5.274,0,0,1,10.212,0H22.409v-.439A1.318,1.318,0,0,0,21.091,19.337Zm-7.8,1.758H8.042a6.6,6.6,0,0,1,8.31-5.01A7.918,7.918,0,0,0,13.292,21.094ZM14.5,10.549a11.846,11.846,0,0,1,9.217,4.4,7.922,7.922,0,0,0-4.209-.289A9.143,9.143,0,0,0,14.5,13.185a9.241,9.241,0,0,0-9.133,7.909H2.71A11.88,11.88,0,0,1,14.5,10.549ZM24.841,26.367H4.159L3.2,23.731H25.8Z" transform="translate(0 -0.004)" fill="#f81242"/>
</svg>
