<svg xmlns="http://www.w3.org/2000/svg" width="29" height="29" viewBox="0 0 29 29">
  <path id="cinnamon-roll_1_" data-name="cinnamon-roll (1)" d="M24.6,3.086A17.144,17.144,0,0,0,14.5,0,17.144,17.144,0,0,0,4.4,3.086a9.824,9.824,0,0,0-4.4,7.9v7.03a9.824,9.824,0,0,0,4.4,7.9A17.144,17.144,0,0,0,14.5,29a17.143,17.143,0,0,0,10.1-3.086,9.824,9.824,0,0,0,4.4-7.9v-7.03A9.824,9.824,0,0,0,24.6,3.086ZM5.959,5.212a14.237,14.237,0,0,1,7.706-2.555c4.17.266,7.428,3.169,7.428,6.629,0,2.788-2.773,5.056-6.181,5.056-2.581,0-4.682-1.7-4.682-3.781,0-1.523,1.562-2.761,3.482-2.761a1.318,1.318,0,1,0,0-2.636c-3.373,0-6.118,2.421-6.118,5.4,0,3.539,3.283,6.418,7.318,6.418,4.862,0,8.818-3.451,8.818-7.692a8.328,8.328,0,0,0-1.348-4.523q.34.215.661.45a7.267,7.267,0,0,1,3.322,5.772,7.267,7.267,0,0,1-3.322,5.772A14.5,14.5,0,0,1,14.5,19.333a14.5,14.5,0,0,1-8.541-2.576,7.267,7.267,0,0,1-3.322-5.772A7.267,7.267,0,0,1,5.959,5.212Zm20.405,12.8a7.267,7.267,0,0,1-3.322,5.772A14.5,14.5,0,0,1,14.5,26.364a14.5,14.5,0,0,1-8.541-2.576,7.267,7.267,0,0,1-3.322-5.772v-.69A12.611,12.611,0,0,0,4.4,18.883,17.144,17.144,0,0,0,14.5,21.97a17.143,17.143,0,0,0,10.1-3.086,12.612,12.612,0,0,0,1.763-1.558Z" fill="#f81242"/>
</svg>
