<svg xmlns="http://www.w3.org/2000/svg" width="31" height="17.352" viewBox="0 0 31 17.352">
  <g id="japanese-food" transform="translate(0.001 -77.037)">
    <g id="Group_9685" data-name="Group 9685" transform="translate(0 77.038)">
      <g id="Layer_5_24_">
        <g id="Group_9684" data-name="Group 9684">
          <path id="Path_1270" data-name="Path 1270" d="M42.474,222.994h0a6.938,6.938,0,0,1-.725-.042.242.242,0,0,0-.247.09,4.45,4.45,0,0,1-3.967,2.528H20.644a4.5,4.5,0,0,1-3.983-2.556.185.185,0,0,0-.187-.067,7.079,7.079,0,0,1-.769.046c-.158,0-.307-.007-.45-.021s-.346,0-.346.113c.646,2.579,2.549,4.277,4.919,4.277H38.35a5.238,5.238,0,0,0,4.973-4.288c.026-.144-.109-.141-.19-.129A4.412,4.412,0,0,1,42.474,222.994Z" transform="translate(-13.589 -210.013)" fill="#f81242"/>
          <g id="Group_9683" data-name="Group 9683">
            <path id="Path_1271" data-name="Path 1271" d="M5.633,102.441c-.078-.136-.206-.073-.281-.034C2.074,104.13,0,106.672,0,109.507c0,3.63,3.4,2.179,8.371.981a.2.2,0,0,0,.137-.267Z" transform="translate(0 -100.108)" fill="#f81242"/>
            <path id="Path_1272" data-name="Path 1272" d="M189.025,77.649v9.106a.121.121,0,0,0,.127.137,32.33,32.33,0,0,1,5.4.855c.076.018.224.042.289-.084l3.444-7.5a.2.2,0,0,0-.094-.269,21.249,21.249,0,0,0-8.957-2.4C189.163,77.488,189.025,77.492,189.025,77.649Z" transform="translate(-172.275 -77.451)" fill="#f81242"/>
            <path id="Path_1273" data-name="Path 1273" d="M84.37,77.215c0-.146-.179-.177-.221-.177a23,23,0,0,0-8.538,1.606.219.219,0,0,0-.134.274l2.976,8.06a.2.2,0,0,0,.258.089,27.866,27.866,0,0,1,5.512-.636c.036,0,.148,0,.148-.1V77.215Z" transform="translate(-68.778 -77.038)" fill="#f81242"/>
            <path id="Path_1274" data-name="Path 1274" d="M270.485,113.774c-.943,1.763-3.3,7.173-3.3,7.173-.036.081.049.117.094.128,4.341,1.109,7.223,2.076,7.223-1.267,0-2.339-1.411-4.477-3.744-6.121A.2.2,0,0,0,270.485,113.774Z" transform="translate(-243.505 -110.41)" fill="#f81242"/>
          </g>
        </g>
      </g>
    </g>
  </g>
</svg>
