<svg xmlns="http://www.w3.org/2000/svg" width="31" height="31" viewBox="0 0 31 31">
  <path id="pizza_3_" data-name="pizza (3)" d="M12.152,9.36a8.476,8.476,0,0,1-.324-.862c-.763.723-1.165,1.538-1.625.5a2.724,2.724,0,0,1,4.981-2.208c.461,1.039-.413.79-1.461.87a8.41,8.41,0,0,1,.421.819c.61,1.376.18,1.609-.37,1.853s-1.012.406-1.622-.969Zm8.487,13.561A2.724,2.724,0,0,0,24.1,18.713c-.878-.722-.871.186-1.229,1.175a8.425,8.425,0,0,0-.676-.625c-1.162-.956-1.5-.6-1.884-.139s-.662.866.5,1.822a8.452,8.452,0,0,0,.744.543c-.9.542-1.794.71-.916,1.433ZM21.228,8.38c-.9.69-.017.891.864,1.464a8.436,8.436,0,0,0-.763.516c-1.2.914-.93,1.325-.565,1.8s.693.842,1.888-.072a8.4,8.4,0,0,0,.7-.6c.322,1,.283,1.908,1.186,1.218A2.724,2.724,0,0,0,21.228,8.38ZM8.4,11A2.724,2.724,0,0,0,7.168,16.3c1.107.257.7-.554.579-1.6a8.468,8.468,0,0,0,.883.26c1.466.34,1.614-.126,1.75-.712s.208-1.07-1.257-1.411a8.461,8.461,0,0,0-.908-.156C8.783,11.8,9.508,11.254,8.4,11Zm3.132,8.222c-.375-.47-.71-.827-1.886.111a8.511,8.511,0,0,0-.685.615c-.343-.994-.322-1.9-1.211-1.193a2.724,2.724,0,0,0,3.4,4.259c.889-.709,0-.891-.894-1.446A8.5,8.5,0,0,0,11,21.034c1.176-.938.9-1.344.527-1.815ZM16.123,26.9a2.723,2.723,0,0,0,2.708-2.738c-.007-1.151-.718-.535-1.726-.18a8.435,8.435,0,0,0,.053-.928c0-1.5-.49-1.543-1.092-1.542s-1.09.041-1.087,1.545a8.477,8.477,0,0,0,.054.91c-.973-.347-1.656-.9-1.65.226a2.723,2.723,0,0,0,2.74,2.706Zm13.523-4.046a1.211,1.211,0,1,1-2.132-1.148,13.055,13.055,0,0,0,1.5-5H16a1.211,1.211,0,0,1-1.151-1.585L18.876,2.745c-.377-.084-.759-.153-1.145-.2a13.076,13.076,0,0,0-12.118,20.9,13.077,13.077,0,0,0,18.33,2.446,1.211,1.211,0,1,1,1.471,1.924A15.382,15.382,0,0,1,16.032,31a15.729,15.729,0,0,1-2.082-.139A15.5,15.5,0,0,1,6.587,3.189,15.5,15.5,0,0,1,29.646,22.855ZM17.667,14.29H29.016a13.083,13.083,0,0,0-7.836-10.8Zm0,0" transform="translate(-0.499)" fill="#f81242"/>
</svg>
