<svg xmlns="http://www.w3.org/2000/svg" width="31" height="25.731" viewBox="0 0 31 25.731">
  <path id="hamburger_1_" data-name="hamburger (1)" d="M19.556,4.722a1.211,1.211,0,1,1-1.211,1.211A1.211,1.211,0,0,1,19.556,4.722Zm2.119,4.238A1.211,1.211,0,1,0,22.887,7.75,1.211,1.211,0,0,0,21.676,8.961Zm9.1,11.059a1.209,1.209,0,0,1-.988.51v.359a4.849,4.849,0,0,1-4.844,4.844H6.115a4.849,4.849,0,0,1-4.844-4.844v-.36a1.21,1.21,0,0,1-.76-2.2c.045-.032.091-.062.136-.093a3.614,3.614,0,0,1,.627-4.82,16.66,16.66,0,0,1,.873-5.264A11.646,11.646,0,0,1,4.9,3.71C7.369,1.248,10.932,0,15.488,0h.08c5.227.017,9.277,1.8,11.713,5.162A1.211,1.211,0,1,1,25.32,6.583c-1.964-2.709-5.338-4.148-9.76-4.162h-.072c-3.892,0-6.879,1.011-8.879,3a10.673,10.673,0,0,0-2.876,7.107H27.323c-.033-.451-.085-.891-.155-1.316a1.211,1.211,0,1,1,2.389-.4,17.8,17.8,0,0,1,.229,2.65,3.614,3.614,0,0,1,.565,4.767c.046.031.092.061.136.093a1.211,1.211,0,0,1,.289,1.688Zm-3.41-2.643a1.2,1.2,0,1,0,0-2.409,1.212,1.212,0,0,1-.169-.013H3.8a1.249,1.249,0,0,1-.169.013,1.2,1.2,0,1,0,0,2.409Zm0,3.512V19.8a2.823,2.823,0,0,0-1.544.509,3.776,3.776,0,0,1-4.7,0,2.828,2.828,0,0,0-1.6-.51h-.061a2.828,2.828,0,0,0-1.6.51,4.058,4.058,0,0,1-2.352.822,4.058,4.058,0,0,1-2.352-.822,2.827,2.827,0,0,0-1.6-.51h-.061a2.828,2.828,0,0,0-1.6.51,4.058,4.058,0,0,1-2.352.822,4.058,4.058,0,0,1-2.352-.822A2.817,2.817,0,0,0,3.693,19.8v1.086A2.424,2.424,0,0,0,6.115,23.31h18.83a2.425,2.425,0,0,0,2.422-2.422Zm0,0" transform="translate(0)" fill="#f81242"/>
</svg>
