<svg xmlns="http://www.w3.org/2000/svg" width="31" height="24.729" viewBox="0 0 31 24.729">
  <path id="salad-for-brunch" d="M39.671,88.294a2.482,2.482,0,0,0-2.036-1.063h-.457a2.924,2.924,0,0,0-.387-.313,2.08,2.08,0,0,0,.61-1.423c0-1.168-1.106-2.144-2.617-2.47a1.585,1.585,0,0,0-1.469-1.5,1.289,1.289,0,0,0-.539.122c0-.042.01-.081.01-.122a2.816,2.816,0,0,0-2.5-3.05,2.447,2.447,0,0,0-2.135,1.486,4.228,4.228,0,0,0-2.042-.525,4.08,4.08,0,0,0-2.96,1.233,37.77,37.77,0,0,0-3.412-5.406,1.588,1.588,0,0,0-1.519-.61,1.561,1.561,0,0,0-1.234,1.078c-.257.822-.563,1.891-.839,3.042-1.079-.735-2.133-1.372-2.948-1.84a1.593,1.593,0,0,0-1.637.047,1.56,1.56,0,0,0-.7,1.478c.246,2.311.85,6.355,2.145,8.771H11.6A2.48,2.48,0,0,0,9.27,90.574a20.542,20.542,0,0,0,4.339,7.271A5.46,5.46,0,0,0,17.4,99.364h14.44a5.454,5.454,0,0,0,3.791-1.522,20.549,20.549,0,0,0,4.333-7.268A2.48,2.48,0,0,0,39.671,88.294ZM18.542,76.559a31.392,31.392,0,0,1,3.7,6.367,3.8,3.8,0,0,0-1.3.367c-.074-.123-.132-.247-.212-.37a13.7,13.7,0,0,0-3.06-3.038C17.892,78.855,18.179,77.744,18.542,76.559ZM12.616,78.6c1.768,1.032,5.376,3.3,6.661,5.27.13.2.221.395.333.593a4.067,4.067,0,0,0-.742,2.146l-2.607-4a.865.865,0,1,0-1.45.945l2.4,3.679H15.045c-.1-.137-.2-.263-.3-.411C13.463,84.849,12.847,80.633,12.616,78.6ZM37.8,89.771a18.741,18.741,0,0,1-3.765,6.4,3.159,3.159,0,0,1-2.2.881H17.4a3.165,3.165,0,0,1-2.194-.879,18.72,18.72,0,0,1-3.77-6.406.173.173,0,0,1,.162-.233h26.04a.174.174,0,0,1,.143.074A.172.172,0,0,1,37.8,89.771Z" transform="translate(-9.115 -74.635)" fill="#f81242"/>
</svg>
