<svg xmlns="http://www.w3.org/2000/svg" width="31" height="31" viewBox="0 0 31 31"><g transform="translate(0 -0.042)"><g transform="translate(3.672 16.563)"><path d="M71.142,278.468,66,273.327a.909.909,0,0,0-1.285,1.285l3.213,3.213-6.3-.9a.909.909,0,0,0-.771,1.542L66,283.609a.909.909,0,0,0,1.285-1.285l-3.213-3.213,6.3.9a.909.909,0,0,0,.771-1.542Z" transform="translate(-60.595 -273.061)" fill="#f81242"/></g><g transform="translate(10.084 11.435)"><path d="M175.881,193.651a.909.909,0,0,0-1.285,0l-1.928,1.928-1.285-1.285,1.928-1.928a.909.909,0,0,0-1.285-1.285l-1.928,1.928-1.285-1.285,1.928-1.928a.909.909,0,1,0-1.285-1.285l-2.57,2.57a.909.909,0,0,0,0,1.285l5.141,5.141a.909.909,0,0,0,1.285,0l2.57-2.57A.909.909,0,0,0,175.881,193.651Z" transform="translate(-166.619 -188.244)" fill="#f81242"/></g><g transform="translate(15.215 3.737)"><path d="M262.117,67.881l-3.855-6.426a.909.909,0,0,0-1.559.935l2.592,4.319L257.77,66.2a.909.909,0,0,0-1.149,1.149l.508,1.525-4.319-2.592a.909.909,0,1,0-.935,1.559L258.3,71.7a.909.909,0,0,0,1.33-1.067l-.71-2.131,2.131.71a.909.909,0,0,0,1.067-1.33Z" transform="translate(-251.433 -61.014)" fill="#f81242"/></g><g transform="translate(0 0.042)"><g transform="translate(0 0)"><path d="M29.672,6.508,24.537,1.372a4.539,4.539,0,0,0-6.419,0L1.327,18.156a4.546,4.546,0,0,0,0,6.42l5.136,5.136a4.539,4.539,0,0,0,6.419,0l16.79-16.784h0A4.546,4.546,0,0,0,29.672,6.508Zm-1.284,5.136L11.6,28.428a2.726,2.726,0,0,1-3.852,0L2.611,23.292a2.727,2.727,0,0,1,0-3.852L19.4,2.656a2.723,2.723,0,0,1,3.852,0l5.136,5.136A2.727,2.727,0,0,1,28.389,11.644Z" transform="translate(0 -0.042)" fill="#f81242"/></g></g></g></svg>