<svg xmlns="http://www.w3.org/2000/svg" width="73" height="15" viewBox="0 0 73 15"><g transform="translate(-286 -2677)"><rect width="22" height="2" transform="translate(337 2677)"/><rect width="22" height="2" transform="translate(337 2683)"/><rect width="22" height="2" transform="translate(337 2689)"/><g transform="translate(286 2677)"><path d="M10.714,9.429h-.686l-.257-.257a5.365,5.365,0,0,0,1.371-3.6,5.571,5.571,0,1,0-5.571,5.571,5.365,5.365,0,0,0,3.6-1.371l.257.257v.686L13.714,15,15,13.714Zm-5.143,0A3.857,3.857,0,1,1,9.429,5.571,3.841,3.841,0,0,1,5.571,9.429Z" fill="#f81242"/></g></g></svg>