<svg xmlns="http://www.w3.org/2000/svg" width="18.82" height="25.996" viewBox="0 0 18.82 25.996"><path d="M144.156,234.585h4.182l-2.091-2.593Zm0,0" transform="translate(-136.837 -220.213)" fill="#fff"/><path d="M13.49,0H5.331A5.337,5.337,0,0,0,0,5.331V20.665A5.337,5.337,0,0,0,5.331,26H13.49a5.337,5.337,0,0,0,5.331-5.331V5.331A5.337,5.337,0,0,0,13.49,0Zm1.274,17.2a.761.761,0,0,1-1.071-.115l-.963-1.195H6.091l-.963,1.195a.762.762,0,0,1-1.186-.956l.333-.413a.762.762,0,0,1,.486-1.348h.6l3.069-3.806L7.118,8.936A.762.762,0,1,1,8.3,7.98L9.41,9.353,10.517,7.98a.762.762,0,1,1,1.186.956l-1.314,1.63,3.069,3.806h.6a.762.762,0,0,1,.486,1.348l.333.413A.761.761,0,0,1,14.764,17.2Zm0,0" fill="#fff"/></svg>