<svg xmlns="http://www.w3.org/2000/svg" width="18.82" height="25.996"><rect id="backgroundrect" width="100%" height="100%" x="0" y="0" fill="none" stroke="none"/><g class="currentLayer" style=""><title>Layer 1</title><path d="M7.318994384765631,14.37200256347657 h4.182 l-2.091,-2.593 zm0,0 " fill="#919191" id="svg_1" class="" fill-opacity="1"/><path d="M13.49,0H5.331A5.337,5.337,0,0,0,0,5.331V20.665A5.337,5.337,0,0,0,5.331,26H13.49a5.337,5.337,0,0,0,5.331-5.331V5.331A5.337,5.337,0,0,0,13.49,0Zm1.274,17.2a.761.761,0,0,1-1.071-.115l-.963-1.195H6.091l-.963,1.195a.762.762,0,0,1-1.186-.956l.333-.413a.762.762,0,0,1,.486-1.348h.6l3.069-3.806L7.118,8.936A.762.762,0,1,1,8.3,7.98L9.41,9.353,10.517,7.98a.762.762,0,1,1,1.186.956l-1.314,1.63,3.069,3.806h.6a.762.762,0,0,1,.486,1.348l.333.413A.761.761,0,0,1,14.764,17.2Zm0,0" fill="#919191" id="svg_2" class="" fill-opacity="1"/></g></svg>