<svg xmlns="http://www.w3.org/2000/svg" width="26" height="26"><rect id="backgroundrect" width="100%" height="100%" x="0" y="0" fill="none" stroke="none"/><g class="currentLayer" style=""><title>Layer 1</title><g id="svg_1" class="selected" fill="#919191" fill-opacity="1"><path d="M15.539005615234373,13.657900345802318 A2.5380000000000003,2.5380000000000003 0 1 1 13.000005615234386,11.119900345802307 A2.5380000000000003,2.5380000000000003 0 0 1 15.539005615234373,13.657900345802318 zm0,0 " fill="#919191" id="svg_2" fill-opacity="1"/><path d="M18.937003173828117,9.165900101661691 a2.5220000000000002,2.5220000000000002 0 0 0 -1.445,-1.445 a4.213,4.213 0 0 0 -1.4140000000000001,-0.262 c-0.8,-0.03700000000000001 -1.044,-0.04500000000000002 -3.077,-0.04500000000000002 s-2.274,0.008000000000000004 -3.077,0.04400000000000002 a4.216,4.216 0 0 0 -1.4140000000000001,0.262 a2.523,2.523 0 0 0 -1.445,1.445 a4.215,4.215 0 0 0 -0.262,1.4140000000000001 c-0.03700000000000001,0.8 -0.04500000000000002,1.044 -0.04500000000000002,3.077 s0.008000000000000004,2.274 0.04500000000000002,3.077 a4.213,4.213 0 0 0 0.262,1.4140000000000001 a2.5220000000000002,2.5220000000000002 0 0 0 1.445,1.445 a4.208,4.208 0 0 0 1.4140000000000001,0.262 c0.8,0.03700000000000001 1.044,0.04400000000000002 3.077,0.04400000000000002 s2.275,-0.008000000000000004 3.077,-0.04400000000000002 a4.208,4.208 0 0 0 1.4140000000000001,-0.262 a2.5220000000000002,2.5220000000000002 0 0 0 1.445,-1.445 a4.217,4.217 0 0 0 0.262,-1.4140000000000001 c0.03700000000000001,-0.8 0.04400000000000002,-1.044 0.04400000000000002,-3.077 s-0.008000000000000004,-2.274 -0.04400000000000002,-3.077 A4.208,4.208 0 0 0 18.937003173828117,9.165900101661691 zm-5.937,8.4 a3.91,3.91 0 1 1 3.91,-3.91 A3.91,3.91 0 0 1 13.000003173828134,17.567900101661678 zm4.065,-7.062 a0.914,0.914 0 1 1 0.914,-0.914 A0.914,0.914 0 0 1 17.06500317382813,10.506900101661671 zm0,0 " fill="#919191" id="svg_3" fill-opacity="1"/><path d="M13,0.6578947305679321 A13,13 0 1 0 26,13.657894730567932 A13,13 0 0 0 13,0.6578947305679321 zm7.42,16.078 a5.477,5.477 0 0 1 -0.3470000000000001,1.812 a3.817,3.817 0 0 1 -2.183,2.183 a5.481,5.481 0 0 1 -1.812,0.3470000000000001 c-0.8,0.036000000000000004 -1.05,0.04500000000000001 -3.078,0.04500000000000001 s-2.282,-0.009000000000000003 -3.078,-0.04500000000000001 a5.481,5.481 0 0 1 -1.812,-0.3470000000000001 A3.817,3.817 0 0 1 5.927,18.547894730567933 a5.476,5.476 0 0 1 -0.3470000000000001,-1.812 c-0.037000000000000005,-0.8 -0.04500000000000001,-1.051 -0.04500000000000001,-3.078 s0.009000000000000003,-2.282 0.04500000000000001,-3.078 A5.477,5.477 0 0 1 5.927,8.767894730567932 A3.819,3.819 0 0 1 8.11,6.584894730567932 A5.482,5.482 0 0 1 9.922,6.237894730567932 c0.8,-0.036000000000000004 1.05,-0.04500000000000001 3.078,-0.04500000000000001 s2.282,0.009000000000000003 3.078,0.04500000000000001 a5.483,5.483 0 0 1 1.812,0.3470000000000001 A3.818,3.818 0 0 1 20.073,8.767894730567932 a5.476,5.476 0 0 1 0.3470000000000001,1.812 c0.036000000000000004,0.8 0.04500000000000001,1.05 0.04500000000000001,3.078 S20.456,15.939894730567932 20.42,16.73589473056793 zm0,0 " fill="#919191" id="svg_4" fill-opacity="1"/></g></g></svg>