<svg xmlns="http://www.w3.org/2000/svg" width="26" height="26"><rect id="backgroundrect" width="100%" height="100%" x="0" y="0" fill="none" stroke="none"/><g class="currentLayer" style=""><title>Layer 1</title><g id="svg_1" class="selected" fill="#919191" fill-opacity="1"><path d="M15.539005615234373,13.000005615234386 A2.5380000000000003,2.5380000000000003 0 1 1 13.000005615234386,10.462005615234375 A2.5380000000000003,2.5380000000000003 0 0 1 15.539005615234373,13.000005615234386 zm0,0 " fill="#919191" id="svg_2" fill-opacity="1"/><path d="M18.937003173828117,8.508005371093759 a2.5220000000000002,2.5220000000000002 0 0 0 -1.445,-1.445 a4.213,4.213 0 0 0 -1.4140000000000001,-0.262 c-0.8,-0.037000000000000005 -1.044,-0.04500000000000001 -3.077,-0.04500000000000001 s-2.274,0.008000000000000002 -3.077,0.04400000000000001 a4.216,4.216 0 0 0 -1.4140000000000001,0.262 a2.523,2.523 0 0 0 -1.445,1.445 a4.215,4.215 0 0 0 -0.262,1.4140000000000001 c-0.037000000000000005,0.8 -0.04500000000000001,1.044 -0.04500000000000001,3.077 s0.008000000000000002,2.274 0.04500000000000001,3.077 a4.213,4.213 0 0 0 0.262,1.4140000000000001 a2.5220000000000002,2.5220000000000002 0 0 0 1.445,1.445 a4.208,4.208 0 0 0 1.4140000000000001,0.262 c0.8,0.037000000000000005 1.044,0.04400000000000001 3.077,0.04400000000000001 s2.275,-0.008000000000000002 3.077,-0.04400000000000001 a4.208,4.208 0 0 0 1.4140000000000001,-0.262 a2.5220000000000002,2.5220000000000002 0 0 0 1.445,-1.445 a4.217,4.217 0 0 0 0.262,-1.4140000000000001 c0.037000000000000005,-0.8 0.04400000000000001,-1.044 0.04400000000000001,-3.077 s-0.008000000000000002,-2.274 -0.04400000000000001,-3.077 A4.208,4.208 0 0 0 18.937003173828117,8.508005371093759 zm-5.937,8.4 a3.91,3.91 0 1 1 3.91,-3.91 A3.91,3.91 0 0 1 13.000003173828134,16.910005371093746 zm4.065,-7.062 a0.914,0.914 0 1 1 0.914,-0.914 A0.914,0.914 0 0 1 17.06500317382813,9.849005371093739 zm0,0 " fill="#919191" id="svg_3" fill-opacity="1"/><path d="M13,0A13,13,0,1,0,26,13,13,13,0,0,0,13,0Zm7.42,16.078a5.477,5.477,0,0,1-.347,1.812,3.817,3.817,0,0,1-2.183,2.183,5.481,5.481,0,0,1-1.812.347c-.8.036-1.05.045-3.078.045s-2.282-.009-3.078-.045a5.481,5.481,0,0,1-1.812-.347A3.817,3.817,0,0,1,5.927,17.89a5.476,5.476,0,0,1-.347-1.812c-.037-.8-.045-1.051-.045-3.078s.009-2.282.045-3.078A5.477,5.477,0,0,1,5.927,8.11,3.819,3.819,0,0,1,8.11,5.927,5.482,5.482,0,0,1,9.922,5.58c.8-.036,1.05-.045,3.078-.045s2.282.009,3.078.045a5.483,5.483,0,0,1,1.812.347A3.818,3.818,0,0,1,20.073,8.11a5.476,5.476,0,0,1,.347,1.812c.036.8.045,1.05.045,3.078S20.456,15.282,20.42,16.078Zm0,0" fill="#919191" id="svg_4" fill-opacity="1"/></g></g></svg>