<svg xmlns="http://www.w3.org/2000/svg" width="26" height="26" viewBox="0 0 26 26"><g transform="translate(0)"><path d="M212.077,209.538A2.538,2.538,0,1,1,209.538,207,2.538,2.538,0,0,1,212.077,209.538Zm0,0" transform="translate(-196.538 -196.538)" fill="#fff"/><path d="M147.665,137.24a2.522,2.522,0,0,0-1.445-1.445,4.213,4.213,0,0,0-1.414-.262c-.8-.037-1.044-.045-3.077-.045s-2.274.008-3.077.044a4.216,4.216,0,0,0-1.414.262,2.523,2.523,0,0,0-1.445,1.445,4.215,4.215,0,0,0-.262,1.414c-.037.8-.045,1.044-.045,3.077s.008,2.274.045,3.077a4.213,4.213,0,0,0,.262,1.414,2.522,2.522,0,0,0,1.445,1.445,4.208,4.208,0,0,0,1.414.262c.8.037,1.044.044,3.077.044s2.275-.008,3.077-.044a4.208,4.208,0,0,0,1.414-.262,2.522,2.522,0,0,0,1.445-1.445,4.217,4.217,0,0,0,.262-1.414c.037-.8.044-1.044.044-3.077s-.008-2.274-.044-3.077A4.208,4.208,0,0,0,147.665,137.24Zm-5.937,8.4a3.91,3.91,0,1,1,3.91-3.91A3.91,3.91,0,0,1,141.728,145.642Zm4.065-7.062a.914.914,0,1,1,.914-.914A.914.914,0,0,1,145.793,138.581Zm0,0" transform="translate(-128.728 -128.732)" fill="#fff"/><path d="M13,0A13,13,0,1,0,26,13,13,13,0,0,0,13,0Zm7.42,16.078a5.477,5.477,0,0,1-.347,1.812,3.817,3.817,0,0,1-2.183,2.183,5.481,5.481,0,0,1-1.812.347c-.8.036-1.05.045-3.078.045s-2.282-.009-3.078-.045a5.481,5.481,0,0,1-1.812-.347A3.817,3.817,0,0,1,5.927,17.89a5.476,5.476,0,0,1-.347-1.812c-.037-.8-.045-1.051-.045-3.078s.009-2.282.045-3.078A5.477,5.477,0,0,1,5.927,8.11,3.819,3.819,0,0,1,8.11,5.927,5.482,5.482,0,0,1,9.922,5.58c.8-.036,1.05-.045,3.078-.045s2.282.009,3.078.045a5.483,5.483,0,0,1,1.812.347A3.818,3.818,0,0,1,20.073,8.11a5.476,5.476,0,0,1,.347,1.812c.036.8.045,1.05.045,3.078S20.456,15.282,20.42,16.078Zm0,0" fill="#fff"/></g></svg>