<svg xmlns="http://www.w3.org/2000/svg" width="26" height="26"><rect id="backgroundrect" width="100%" height="100%" x="0" y="0" fill="none" stroke="none"/><g class="currentLayer" style=""><title>Layer 1</title><g id="svg_1" class="selected" fill="#919191" fill-opacity="1"><path d="M13.013999176025393,10.772000228881836 a2.239,2.239 0 1 0 -2.253,-2.217 A2.224,2.224 0 0 0 13.013999176025393,10.772000228881836 z" fill="#919191" id="svg_2" fill-opacity="1"/><path d="M13,0A13,13,0,1,0,26,13,13,13,0,0,0,13,0Zm.019,3.953A4.579,4.579,0,1,1,8.425,8.522,4.581,4.581,0,0,1,13.019,3.953ZM18.147,14.91a5.5,5.5,0,0,1-1.982,1.281,9.321,9.321,0,0,1-2.25.5c.116.126.171.188.243.26C15.2,18,16.246,19.045,17.284,20.1a1.034,1.034,0,0,1,.233,1.217,1.233,1.233,0,0,1-1.157.722,1.127,1.127,0,0,1-.733-.374c-.786-.791-1.587-1.568-2.357-2.374-.225-.235-.332-.19-.53.014-.791.814-1.595,1.616-2.4,2.413a1.007,1.007,0,0,1-1.216.218A1.23,1.23,0,0,1,8.41,20.8a1.134,1.134,0,0,1,.381-.76q1.547-1.544,3.088-3.093c.068-.068.132-.141.231-.247a7.035,7.035,0,0,1-3.75-1.338,4.958,4.958,0,0,1-.4-.325A1.124,1.124,0,0,1,9.236,13.2a2.2,2.2,0,0,1,.311.183,6.148,6.148,0,0,0,6.816.062,1.848,1.848,0,0,1,.664-.343,1.041,1.041,0,0,1,1.193.476A1.011,1.011,0,0,1,18.147,14.91Z" fill="#919191" id="svg_3" fill-opacity="1"/></g></g></svg>