<svg xmlns="http://www.w3.org/2000/svg" width="24.359" height="25.986" viewBox="0 0 24.359 25.986"><g transform="translate(-16.014 0)"><g transform="translate(17.653 0)"><g transform="translate(0 0)"><path d="M51.522.416A3.3,3.3,0,0,0,48.3.424L60.141,11.345l3.977-3.977Z" transform="translate(-48.302 0)" fill="#fff"/></g></g><g transform="translate(16.014 1.541)"><g transform="translate(0)"><path d="M16.469,30.365a3.028,3.028,0,0,0-.455,1.587V51.676a3.038,3.038,0,0,0,.424,1.548L28.343,41.319Z" transform="translate(-16.014 -30.365)" fill="#fff"/></g></g><g transform="translate(30.685 8.185)"><path d="M313.158,163.37l-3.794-2.093-4.263,4.261,5.224,4.818,2.834-1.564a3.069,3.069,0,0,0,0-5.422Z" transform="translate(-305.102 -161.277)" fill="#fff"/></g><g transform="translate(17.599 13.596)"><g transform="translate(0)"><path d="M59.184,267.9,47.246,279.839a3.292,3.292,0,0,0,3.274.031L64.059,272.4Z" transform="translate(-47.246 -267.901)" fill="#fff"/></g></g></g></svg>