<svg xmlns="http://www.w3.org/2000/svg" width="24.359" height="25.986"><rect id="backgroundrect" width="100%" height="100%" x="0" y="0" fill="none" stroke="none"/><g class="currentLayer" style=""><title>Layer 1</title><g id="svg_1" class="selected" fill="#919191" fill-opacity="1"><g id="svg_2" fill="#919191" fill-opacity="1"><g id="svg_3" fill="#919191" fill-opacity="1"><path d="M4.859001800537108,0.41600000000000015 A3.3,3.3 0 0 0 1.6370018005371065,0.42400000000000015 L13.478001800537108,11.345 l3.977,-3.977 z" fill="#919191" id="svg_4" fill-opacity="1"/></g></g><g id="svg_5" fill="#919191" fill-opacity="1"><g id="svg_6" fill="#919191" fill-opacity="1"><path d="M0.45500006103515744,1.5410002374649032 a3.028,3.028 0 0 0 -0.455,1.5870000000000002 V22.852000237464907 a3.038,3.038 0 0 0 0.42400000000000015,1.548 L12.329000061035156,12.495000237464907 z" fill="#919191" id="svg_7" fill-opacity="1"/></g></g><g id="svg_8" fill="#919191" fill-opacity="1"><path d="M22.727009780883805,10.278007621765141 l-3.794,-2.093 l-4.263,4.261 l5.224,4.818 l2.834,-1.564 a3.069,3.069 0 0 0 0,-5.422 z" fill="#919191" id="svg_9" fill-opacity="1"/></g><g id="svg_10" fill="#919191" fill-opacity="1"><g id="svg_11" fill="#919191" fill-opacity="1"><path d="M13.523002609252927,13.59499874114988 L1.585002609252932,25.5339987411499 a3.292,3.292 0 0 0 3.274,0.03100000000000002 L18.398002609252927,18.09499874114988 z" fill="#919191" id="svg_12" fill-opacity="1"/></g></g></g></g></svg>