<svg xmlns="http://www.w3.org/2000/svg" width="26" height="26" viewBox="0 0 26 26"><path d="M13,0A13,13,0,1,0,26,13,13,13,0,0,0,13,0Zm6.594,14.406a24.719,24.719,0,0,1,1.791,1.8,5.1,5.1,0,0,1,.641.923c.247.479.024,1-.4,1.033H18.958a2.058,2.058,0,0,1-1.7-.691c-.368-.375-.71-.775-1.065-1.163a2.49,2.49,0,0,0-.48-.427.556.556,0,0,0-.887.215,2.79,2.79,0,0,0-.281,1.243c-.029.628-.218.792-.848.822a6.82,6.82,0,0,1-3.811-.82,8.412,8.412,0,0,1-2.565-2.4A32.353,32.353,0,0,1,3.949,8.925c-.213-.474-.057-.728.466-.738.869-.017,1.738-.015,2.608,0a.766.766,0,0,1,.724.542A16.182,16.182,0,0,0,9.514,12a2.8,2.8,0,0,0,.668.734.405.405,0,0,0,.689-.2,2.233,2.233,0,0,0,.153-.688,10.265,10.265,0,0,0-.042-2.407,1,1,0,0,0-.855-.919c-.254-.048-.217-.142-.093-.288a.958.958,0,0,1,.818-.406H13.86c.474.093.581.306.645.784l0,3.344c-.006.185.093.733.425.854.266.088.442-.126.6-.294a10.4,10.4,0,0,0,1.7-2.605c.2-.413.378-.839.549-1.267a.648.648,0,0,1,.68-.467l2.9,0a1.507,1.507,0,0,1,.257.015c.488.084.622.294.471.77a7.22,7.22,0,0,1-1.151,2c-.484.669-1,1.315-1.48,1.987C19.013,13.563,19.047,13.872,19.594,14.406Z" fill="#fff"/></svg>