<svg xmlns="http://www.w3.org/2000/svg" width="47.836" height="50" viewBox="0 0 47.836 50"><path d="M20.54,36.31a1.22,1.22,0,0,1-1.623.591L13.5,34.376a1.221,1.221,0,0,1,1.032-2.213l5.414,2.525A1.221,1.221,0,0,1,20.54,36.31ZM17.924,14.323h.238V23A1.221,1.221,0,0,0,20.6,23V14.323H32.776a7.17,7.17,0,0,0,7.162-7.162,1.221,1.221,0,0,0-2.442,0,4.725,4.725,0,0,1-4.72,4.72H17.924a4.72,4.72,0,1,1,0-9.439H24.8a7.017,7.017,0,0,0-1.758,4.647,1.221,1.221,0,1,0,2.442,0A4.689,4.689,0,0,1,30.2,2.442H47.628a4.72,4.72,0,0,1,0,9.439H41.687a1.221,1.221,0,1,0,0,2.442h3.261V23a1.221,1.221,0,0,0,2.442,0V14.323h.238A7.162,7.162,0,1,0,47.628,0h-29.7a7.162,7.162,0,1,0,0,14.323Zm34.27,17.028a1.221,1.221,0,0,0-1.61.625,1.66,1.66,0,0,1-.8.882l-2.988,1.393a1.659,1.659,0,0,1-1.181.052,1.221,1.221,0,0,0-.67,2.348,4.463,4.463,0,0,0,1.226.177,3.9,3.9,0,0,0,1.658-.364l2.988-1.393a4.083,4.083,0,0,0,2.007-2.11,1.221,1.221,0,0,0-.625-1.61Zm-30.8.247-5.414-2.524a1.221,1.221,0,1,0-1.032,2.213l5.414,2.524A1.221,1.221,0,1,0,21.389,31.6Zm34.918,2.894a6.29,6.29,0,0,1-3.27,3.576L48.685,40.1a6.358,6.358,0,0,1-7.794-2.007l-4.8,2.24,15.74,7.34a1.221,1.221,0,1,1-1.032,2.213L33.2,41.68,15.67,49.853a1.221,1.221,0,0,1-1.032-2.213l15.671-7.307-4.734-2.208a6.358,6.358,0,0,1-7.795,2.007l-6.863-3.2a3.569,3.569,0,0,1-1.724-4.737l2.341-5.019A3.572,3.572,0,0,1,16.27,25.45l6.862,3.2a6.358,6.358,0,0,1,3.473,7.261L33.2,38.985l6.662-3.106a6.345,6.345,0,0,1,3.473-7.261l4.353-2.03a6.328,6.328,0,0,1,8.624,7.905Zm-32.2-1.431a3.863,3.863,0,0,0-2.007-2.2l-6.863-3.2a1.13,1.13,0,0,0-1.492.543l-2.341,5.019a1.124,1.124,0,0,0,.543,1.492l6.863,3.2a3.886,3.886,0,0,0,5.3-4.857Zm29.781-2.378A3.9,3.9,0,0,0,48.716,28.8l-4.353,2.03A3.9,3.9,0,0,0,42.41,35.84a2.48,2.48,0,0,1,.151.323,3.908,3.908,0,0,0,5.093,1.723l4.353-2.03a3.906,3.906,0,0,0,1.882-5.172Z" transform="translate(-8.859)" fill="#f81241"/></svg>