<svg xmlns="http://www.w3.org/2000/svg" width="50" height="32.682" viewBox="0 0 50 32.682"><path d="M50,90.006c0-.009,0-.019,0-.028a1.145,1.145,0,0,0-1.151-1.126h-.3l-4.668-9.024a1.147,1.147,0,0,0-1.023-.618l-7.969,0,.3-2.41a3.275,3.275,0,0,0-3.3-3.626H7.155a1.222,1.222,0,0,0-1.209,1.1L5.7,76.259H19.789A1.606,1.606,0,0,1,21.4,77.916a1.71,1.71,0,0,1-1.7,1.657H15l0,.007H1.2A1.209,1.209,0,0,0,0,80.751a1.135,1.135,0,0,0,1.141,1.172H19.414a1.717,1.717,0,0,1,1.459,1.752,1.832,1.832,0,0,1-1.807,1.774H6.468a1.222,1.222,0,0,0-1.214,1.183,1.147,1.147,0,0,0,1.152,1.183h12.45a1.718,1.718,0,0,1,1.484,1.756,1.832,1.832,0,0,1-1.822,1.775H3.035a1.222,1.222,0,0,0-1.214,1.183,1.147,1.147,0,0,0,1.152,1.183H4.009L3.6,97.954a3.275,3.275,0,0,0,3.3,3.626H7.8a5.163,5.163,0,0,0,5.109,4.274,5.512,5.512,0,0,0,5.332-4.274h11.15a3.778,3.778,0,0,0,2.424-.909,3.294,3.294,0,0,0,2.309.909h.183a5.163,5.163,0,0,0,5.109,4.274,5.512,5.512,0,0,0,5.332-4.274h.736a3.887,3.887,0,0,0,3.79-3.474l.721-7.989c0-.011,0-.021,0-.032s0-.033,0-.049S50,90.016,50,90.006Zm-37.03,13.481a2.87,2.87,0,0,1-2.881-2.958,3.058,3.058,0,0,1,3.036-2.959A2.87,2.87,0,0,1,16,100.529,3.057,3.057,0,0,1,12.969,103.487Zm26.508,0a2.87,2.87,0,0,1-2.881-2.958,3.058,3.058,0,0,1,3.036-2.959,2.87,2.87,0,0,1,2.881,2.959A3.057,3.057,0,0,1,39.477,103.487Zm7.439-5.533a1.425,1.425,0,0,1-1.37,1.259h-.8a5.163,5.163,0,0,0-5.056-4.01,5.512,5.512,0,0,0-5.265,4.01h-.244a1,1,0,0,1-.756-.318,1.018,1.018,0,0,1-.249-.79l1.492-16.531H38.1l-.543,6.018a3.275,3.275,0,0,0,3.3,3.626h6.667Z" transform="translate(0 -73.172)" fill="#f81241"/></svg>