<svg xmlns="http://www.w3.org/2000/svg" xmlns:xlink="http://www.w3.org/1999/xlink" version="1.1" width="438.533" height="438.533" style="" xml:space="preserve"><rect id="backgroundrect" width="100%" height="100%" x="0" y="0" fill="none" stroke="none"/>
















<g class="currentLayer" style=""><title>Layer 1</title><g id="svg_1" class="selected" fill="#b6b6b6" fill-opacity="1" transform="rotate(179.9998779296875 219.26602172851562,218.5677185058594) ">
	<path d="M409.133,108.50369935321808 c-19.608,-33.592 -46.205,-60.189 -79.798,-79.796 C295.736,9.101699353218079 259.058,-0.6993006467819214 219.273,-0.6993006467819214 c-39.781,0 -76.47,9.801 -110.063,29.407 c-33.595,19.604 -60.192,46.201 -79.8,79.796 C9.801,142.1006993532181 0,178.78969935321808 0,218.56769935321807 c0,39.78 9.804,76.463 29.407,110.062 c19.607,33.592 46.204,60.189 79.799,79.798 c33.597,19.605 70.283,29.407 110.063,29.407 s76.47,-9.802 110.065,-29.407 c33.593,-19.602 60.189,-46.206 79.795,-79.798 c19.603,-33.596000000000004 29.403,-70.284 29.403,-110.062 C438.533,178.7856993532181 428.732,142.09569935321807 409.133,108.50369935321808 zM361.733,231.41169935321807 l-25.978,25.981 l-103.35,103.349 c-3.433,3.43 -7.714,5.147 -12.852,5.147 c-5.1370000000000005,0 -9.419,-1.718 -12.847,-5.147 l-25.981,-25.98 c-3.616,-3.607 -5.424,-7.898 -5.424,-12.847 c0,-4.942 1.8090000000000002,-9.227 5.424,-12.847 l53.962,-53.954 H91.363 c-4.948,0 -9.229,-1.8130000000000002 -12.847,-5.428 c-3.615,-3.613 -5.424,-7.898 -5.424,-12.847 v-36.547 c0,-4.948 1.8090000000000002,-9.231 5.424,-12.847 c3.617,-3.617 7.898,-5.426 12.847,-5.426 h143.325 l-53.962,-53.959 c-3.428,-3.428 -5.14,-7.708 -5.14,-12.847 c0,-5.141 1.7120000000000002,-9.42 5.14,-12.851 l25.981,-25.981 c3.427,-3.425 7.71,-5.1370000000000005 12.847,-5.1370000000000005 c5.145,0 9.419,1.711 12.852,5.1370000000000005 l103.35,103.356 l25.978,25.981 c3.432,3.427 5.144,7.707 5.144,12.847 C366.877,223.70469935321807 365.165,227.98669935321809 361.733,231.41169935321807 z" id="svg_2" fill="#b6b6b6" fill-opacity="1"/>
</g><g id="svg_3">
</g><g id="svg_4">
</g><g id="svg_5">
</g><g id="svg_6">
</g><g id="svg_7">
</g><g id="svg_8">
</g><g id="svg_9">
</g><g id="svg_10">
</g><g id="svg_11">
</g><g id="svg_12">
</g><g id="svg_13">
</g><g id="svg_14">
</g><g id="svg_15">
</g><g id="svg_16">
</g><g id="svg_17">
</g></g></svg>