<svg xmlns="http://www.w3.org/2000/svg" width="17.484" height="15.998" viewBox="0 0 17.484 15.998"><g transform="translate(0 -21.675)"><g transform="translate(0 21.675)"><path d="M12.676,21.675a5.254,5.254,0,0,0-3.934,1.836,5.254,5.254,0,0,0-3.934-1.836A4.74,4.74,0,0,0,0,26.483c0,3.322,2.972,6.032,7.518,10.054l1.224,1.136,1.224-1.136c4.459-4.109,7.518-6.819,7.518-10.054A4.74,4.74,0,0,0,12.676,21.675ZM8.83,35.313H8.742l-.087-.087c-4.2-3.759-6.906-6.207-6.906-8.742a2.988,2.988,0,0,1,3.06-3.06,3.551,3.551,0,0,1,3.147,2.1H9.617a3.333,3.333,0,0,1,3.06-2.1,2.988,2.988,0,0,1,3.06,3.06C15.736,29.019,13.026,31.466,8.83,35.313Z" transform="translate(0 -21.675)" fill="#f81242"/></g></g></svg>