<svg xmlns="http://www.w3.org/2000/svg" width="18.838" height="15.996" viewBox="0 0 18.838 15.996">
  <g id="hot-pepper-and-flame" transform="translate(-7 -42.125)">
    <path id="Path_1159" data-name="Path 1159" d="M439.332,61.768A.953.953,0,0,0,438,63.134a1.571,1.571,0,0,1,.286,1.059,3.363,3.363,0,0,1-.4,1.34,3.877,3.877,0,0,1,.837.616,3.837,3.837,0,0,1,.585.743,5.592,5.592,0,0,0,.88-2.618A3.35,3.35,0,0,0,439.332,61.768Z" transform="translate(-414.357 -18.637)" fill="#fff"/>
    <path id="Path_1160" data-name="Path 1160" d="M21.37,186.972a4.25,4.25,0,0,0-3.35,1.657c-3.766,5.252-7.576,5.522-9.58,5.522-.229,0-.435,0-.613,0-.7,0-1,.053-.731.574.625,1.235,3.476,2.748,6.979,2.748a12.277,12.277,0,0,0,8.9-3.879c1.433-1.461,1.962-4.391.5-5.823A2.957,2.957,0,0,0,21.37,186.972Z" transform="translate(0 -139.347)" fill="#fff"/>
    <path id="Path_1161" data-name="Path 1161" d="M33.561,52.284a4.127,4.127,0,0,1,2.866-4.217s-1.026,2.482.364,3.738a4.747,4.747,0,0,0,1.791-3.316,6.593,6.593,0,0,0-3.921-6.316.437.437,0,0,0-.6.574c.628,1.333,1.051,3.719-1.636,6.5C31.608,50.091,32.276,51.649,33.561,52.284Z" transform="translate(-24.116)" fill="#fff"/>
  </g>
</svg>
