<svg xmlns="http://www.w3.org/2000/svg" width="21.094" height="30" viewBox="0 0 21.094 30"><g transform="translate(0)"><g transform="translate(0)"><path d="M86.547,0a10.549,10.549,0,0,1,8.972,16.093L87.147,29.585A.879.879,0,0,1,86.4,30h-.007a.879.879,0,0,1-.747-.427L77.488,15.95A10.549,10.549,0,0,1,86.547,0ZM79,15.048l7.418,12.385,7.612-12.266A8.795,8.795,0,1,0,79,15.048Z" transform="translate(-76)" fill="#f81242"/></g><g transform="translate(5.273 5.273)"><path d="M171.273,90A5.273,5.273,0,1,1,166,95.273,5.279,5.279,0,0,1,171.273,90Zm0,8.8a3.527,3.527,0,1,0-3.521-3.527A3.53,3.53,0,0,0,171.273,98.8Z" transform="translate(-166 -90)" fill="#f81242"/></g></g></svg>