<svg xmlns="http://www.w3.org/2000/svg" width="30" height="30" viewBox="0 0 30 30"><path d="M14.941,0a15,15,0,0,0,0,30A15.139,15.139,0,0,0,30,14.941,15.034,15.034,0,0,0,14.941,0Zm0,28.254A13.254,13.254,0,1,1,28.254,14.941,13.278,13.278,0,0,1,14.941,28.254Z" fill="#f81242"/><g transform="translate(14.18 10.547)"><path d="M244.121,184.394l2.894-2.894a.879.879,0,0,0-1.243-1.243l-3.516,3.516a.879.879,0,0,0,0,1.243l3.516,3.516a.879.879,0,0,0,1.243-1.243Z" transform="translate(-241.999 -179.999)" fill="#f81242"/></g><g transform="translate(3.516 3.516)"><path d="M71.426,60a11.485,11.485,0,0,0,0,22.969,11.485,11.485,0,1,0,0-22.969ZM78.9,77.659l-.522-.522a.879.879,0,0,0-1.243,1.243l.522.522A9.757,9.757,0,0,1,72.3,81.169v-.837a.879.879,0,1,0-1.758,0v.838a9.565,9.565,0,0,1-5.29-2.216l.575-.575a.879.879,0,0,0-1.243-1.243l-.571.571A9.8,9.8,0,0,1,61.8,72.3h.839a.879.879,0,1,0,0-1.758H61.8a9.625,9.625,0,0,1,2.2-5.3l.59.59a.879.879,0,1,0,1.243-1.243l-.59-.59a9.625,9.625,0,0,1,5.3-2.2v.839a.879.879,0,1,0,1.758,0V61.8a9.8,9.8,0,0,1,5.4,2.222l-.571.571a.879.879,0,1,0,1.243,1.243l.575-.575a9.564,9.564,0,0,1,2.216,5.29h-.838a.879.879,0,1,0,0,1.758h.837A9.757,9.757,0,0,1,78.9,77.659Z" transform="translate(-60 -60)" fill="#f81242"/></g></svg>