<svg xmlns="http://www.w3.org/2000/svg" width="36.571" height="30" viewBox="0 0 36.571 30"><g transform="translate(0 -46)"><g transform="translate(0 46)"><path d="M33.357,46H11.786a3.218,3.218,0,0,0-3.214,3.214v1.071H7.5A3.218,3.218,0,0,0,4.286,53.5v1.071H3.214A3.219,3.219,0,0,0,0,57.786v15A3.22,3.22,0,0,0,3.214,76H24.643a3.219,3.219,0,0,0,3.214-3.214V71.714h1.214A3.218,3.218,0,0,0,32.286,68.5V67.429h1.071a3.218,3.218,0,0,0,3.214-3.214v-15A3.218,3.218,0,0,0,33.357,46ZM24.1,56.714l-9.407,9.5a1.071,1.071,0,0,1-1.522,0l-9.407-9.5ZM2.143,72.342V58.126l7.075,7.141Zm1.515,1.515,7.068-7.068.919.928a3.212,3.212,0,0,0,4.567,0l.919-.928L24.2,73.857Zm22.056-1.515-7.075-7.075,7.075-7.141ZM30.143,68.5a1.073,1.073,0,0,1-1.071,1.071H27.857V57.786a3.219,3.219,0,0,0-3.214-3.214H6.429V53.5A1.073,1.073,0,0,1,7.5,52.429H29.071A1.073,1.073,0,0,1,30.143,53.5Zm4.286-4.286a1.073,1.073,0,0,1-1.071,1.071H32.286V53.5a3.218,3.218,0,0,0-3.214-3.214H10.714V49.214a1.073,1.073,0,0,1,1.071-1.071H33.357a1.073,1.073,0,0,1,1.071,1.071Z" transform="translate(0 -46)" fill="#f81242"/></g></g></svg>