<svg xmlns="http://www.w3.org/2000/svg" width="30.002" height="30" viewBox="0 0 30.002 30"><g transform="translate(-0.002 -0.02)"><g transform="translate(0.002 1.609)"><g transform="translate(0)"><path d="M27.775,47.8l-3.713-3.841-.01-.011a2.635,2.635,0,0,0-3.729,0l-1.7,1.695a2,2,0,0,1-2.825,0h0L9.908,39.887a2,2,0,0,1,0-2.825L11.6,35.368a2.64,2.64,0,0,0,0-3.729L7.874,27.91a2.64,2.64,0,0,0-3.729,0L2.9,29.153l-.113.113a9.5,9.5,0,0,0,0,13.447L12.978,52.762a9.5,9.5,0,0,0,13.434.013c.02-.019,1.338-1.232,1.357-1.252A2.64,2.64,0,0,0,27.775,47.8ZM5.388,29.153a.88.88,0,0,1,1.243,0l3.729,3.729a.878.878,0,0,1,0,1.243l-.621.621L4.766,29.774Zm8.833,22.366L4.032,41.469a7.745,7.745,0,0,1-.485-10.429L8.5,36a3.76,3.76,0,0,0,.165,5.136l5.9,5.756a3.752,3.752,0,0,0,5.134.162L24.65,52A7.727,7.727,0,0,1,14.221,51.519ZM26.537,50.27l-.591.544-5-5,.621-.621a.878.878,0,0,1,1.239,0l3.722,3.85A.88.88,0,0,1,26.537,50.27Z" transform="translate(-0.002 -27.139)" fill="#f81242"/></g></g><g transform="translate(14.184 0.02)"><g transform="translate(0 0)"><path d="M242.9.02a.879.879,0,0,0,0,1.758,13.2,13.2,0,0,1,13.184,13.184.879.879,0,0,0,1.758,0A14.933,14.933,0,0,0,242.9.02Z" transform="translate(-242.021 -0.02)" fill="#f81242"/></g></g><g transform="translate(14.184 3.536)"><path d="M242.9,60.015a.879.879,0,0,0,0,1.758,9.679,9.679,0,0,1,9.668,9.668.879.879,0,0,0,1.758,0A11.439,11.439,0,0,0,242.9,60.015Z" transform="translate(-242.021 -60.015)" fill="#f81242"/></g><g transform="translate(14.184 7.051)"><path d="M242.9,120.011a.879.879,0,0,0,0,1.758,6.159,6.159,0,0,1,6.152,6.152.879.879,0,0,0,1.758,0A7.919,7.919,0,0,0,242.9,120.011Z" transform="translate(-242.021 -120.011)" fill="#f81242"/></g><g transform="translate(14.184 10.567)"><path d="M242.9,180.006a.879.879,0,0,0,0,1.758,2.64,2.64,0,0,1,2.637,2.637.879.879,0,0,0,1.758,0A4.4,4.4,0,0,0,242.9,180.006Z" transform="translate(-242.021 -180.006)" fill="#f81242"/></g></g></svg>