<svg xmlns="http://www.w3.org/2000/svg" width="16" height="16" viewBox="0 0 16 16"><path d="M2.286,40a2.286,2.286,0,1,0,2.286,2.286A2.288,2.288,0,0,0,2.286,40Z" transform="translate(0 -28.571)"/><path d="M22.286,40a2.286,2.286,0,1,0,2.286,2.286A2.288,2.288,0,0,0,22.286,40Z" transform="translate(-14.286 -28.571)"/><path d="M42.286,40a2.286,2.286,0,1,0,2.286,2.286A2.288,2.288,0,0,0,42.286,40Z" transform="translate(-28.571 -28.571)"/><path d="M2.286,20a2.286,2.286,0,1,0,2.286,2.286A2.288,2.288,0,0,0,2.286,20Z" transform="translate(0 -14.286)"/><path d="M22.286,20a2.286,2.286,0,1,0,2.286,2.286A2.288,2.288,0,0,0,22.286,20Z" transform="translate(-14.286 -14.286)"/><path d="M42.286,20a2.286,2.286,0,1,0,2.286,2.286A2.288,2.288,0,0,0,42.286,20Z" transform="translate(-28.571 -14.286)"/><path d="M2.286,0A2.286,2.286,0,1,0,4.571,2.286,2.288,2.288,0,0,0,2.286,0Z"/><path d="M22.286,0a2.286,2.286,0,1,0,2.286,2.286A2.288,2.288,0,0,0,22.286,0Z" transform="translate(-14.286)"/><path d="M42.286,4.571A2.286,2.286,0,1,0,40,2.286,2.288,2.288,0,0,0,42.286,4.571Z" transform="translate(-28.571)"/></svg>