<svg xmlns="http://www.w3.org/2000/svg" xmlns:xlink="http://www.w3.org/1999/xlink" width="98" height="98" viewBox="0 0 98 98"><defs><filter id="a" x="0" y="0" width="98" height="98" filterUnits="userSpaceOnUse"><feOffset dy="3" input="SourceAlpha"/><feGaussianBlur stdDeviation="3" result="b"/><feFlood flood-color="#f81242" flood-opacity="0.4"/><feComposite operator="in" in2="b"/><feComposite in="SourceGraphic"/></filter></defs><g transform="translate(-1186 -520.004)"><g transform="matrix(1, 0, 0, 1, 1186, 520)" filter="url(#a)"><path d="M80,40A40,40,0,1,1,40,0,40,40,0,0,1,80,40Zm0,0" transform="translate(9 6)" fill="#f81242"/></g><g transform="translate(1218.697 544.35)"><g transform="translate(0 5.551)"><g transform="translate(0 0)"><path d="M30.041,10.265H28.956l-1.68-4.714L14.045,10.265H2.786A2.789,2.789,0,0,0,0,13.051V34.88a2.789,2.789,0,0,0,2.786,2.786H30.041a2.789,2.789,0,0,0,2.786-2.786V13.051A2.789,2.789,0,0,0,30.041,10.265ZM26.093,8.043l.792,2.223h-7.03ZM30.876,34.88a.837.837,0,0,1-.836.836H2.786a.837.837,0,0,1-.836-.836V13.051a.837.837,0,0,1,.836-.836H30.041a.837.837,0,0,1,.836.836v6.732H21.5a2.789,2.789,0,0,0-2.786,2.786v2.793A2.789,2.789,0,0,0,21.5,28.148h9.375Zm0-8.682H21.5a.837.837,0,0,1-.836-.836V22.569a.837.837,0,0,1,.836-.836h9.375Z" transform="translate(0 -5.551)" fill="#fff"/></g></g><g transform="translate(21.622 22.677)"><g transform="translate(0 0)"><circle cx="1.288" cy="1.288" r="1.288" fill="#fff"/></g></g></g></g></svg>