<svg xmlns="http://www.w3.org/2000/svg" xmlns:xlink="http://www.w3.org/1999/xlink" width="98" height="98" viewBox="0 0 98 98"><defs><filter id="a" x="0" y="0" width="98" height="98" filterUnits="userSpaceOnUse"><feOffset dy="3" input="SourceAlpha"/><feGaussianBlur stdDeviation="3" result="b"/><feFlood flood-color="#f81242" flood-opacity="0.4"/><feComposite operator="in" in2="b"/><feComposite in="SourceGraphic"/></filter></defs><g transform="translate(-966 -520.004)"><g transform="matrix(1, 0, 0, 1, 966, 520)" filter="url(#a)"><path d="M80,40A40,40,0,1,1,40,0,40,40,0,0,1,80,40Zm0,0" transform="translate(9 6)" fill="#f81242"/></g><g transform="translate(951.88 548.984)"><path d="M76.832,30.282,74.826,7.694a.965.965,0,0,0-.96-.881H69.74a6.921,6.921,0,0,0-13.841,0H51.773a.96.96,0,0,0-.96.881L48.807,30.282c0,.029-.007.057-.007.086,0,2.572,2.357,4.664,5.258,4.664H71.581c2.9,0,5.258-2.092,5.258-4.664A.349.349,0,0,0,76.832,30.282ZM62.82,1.934a4.991,4.991,0,0,1,4.986,4.879H57.834A4.991,4.991,0,0,1,62.82,1.934ZM71.581,33.1H54.058a3.086,3.086,0,0,1-3.324-2.686l1.92-21.656h3.238v2.937a.967.967,0,0,0,1.934,0V8.754h9.979v2.937a.967.967,0,0,0,1.934,0V8.754h3.238l1.927,21.656A3.091,3.091,0,0,1,71.581,33.1Z" fill="#fff"/></g></g></svg>