<svg xmlns="http://www.w3.org/2000/svg" xmlns:xlink="http://www.w3.org/1999/xlink" width="98" height="98" viewBox="0 0 98 98"><defs><filter id="a" x="0" y="0" width="98" height="98" filterUnits="userSpaceOnUse"><feOffset dy="3" input="SourceAlpha"/><feGaussianBlur stdDeviation="3" result="b"/><feFlood flood-color="#f81242" flood-opacity="0.4"/><feComposite operator="in" in2="b"/><feComposite in="SourceGraphic"/></filter></defs><g transform="translate(-1406 -520.004)"><g transform="matrix(1, 0, 0, 1, 1406, 520)" filter="url(#a)"><path d="M80,40A40,40,0,1,1,40,0,40,40,0,0,1,80,40Zm0,0" transform="translate(9 6)" fill="#f81242"/></g><g transform="translate(1441.178 552)"><g transform="translate(0.046)"><path d="M10.749,28a1.37,1.37,0,0,0,2.064-.059c5.142-6.138,12.066-13.8,14.658-15.172a1.8,1.8,0,0,0,.955-1.528V1.219A1.148,1.148,0,0,0,27.3,0a1.253,1.253,0,0,0-.809.311c-1.934,1.612-11.23,9.648-14.324,17.632L9.21,13.136a1.5,1.5,0,0,0-1.968-.494l-6.53,3.8a1.279,1.279,0,0,0-.209,2.1C1.851,19.741,8.685,25.821,10.749,28ZM7.822,14.492l3.554,5.776a1.188,1.188,0,0,0,1.007.608,1.151,1.151,0,0,0,1.095-.9C15.426,13.1,23.214,5.685,26.533,2.766v8.356C23.089,13,14.755,22.691,11.727,26.289c-2.162-2.182-7.113-6.62-9.363-8.622Z" transform="translate(-0.046)" fill="#fff"/></g></g></g></svg>